<svg width="645" height="139" viewBox="0 0 645 139" fill="none" xmlns="http://www.w3.org/2000/svg">
<path d="M555.729 137.229C549.111 137.229 543.467 136.207 538.796 134.163C534.124 132.022 530.329 129.2 527.409 125.697C524.49 122.096 522.349 118.106 520.987 113.727C519.721 109.25 519.089 104.676 519.089 100.005C519.089 95.5283 519.721 91.0517 520.987 86.5751C522.349 82.0986 524.393 78.0112 527.118 74.3132C529.94 70.6152 533.589 67.647 538.066 65.4087C542.64 63.1704 548.138 62.0513 554.561 62.0513C560.205 62.0513 565.168 63.0244 569.45 64.9708C573.732 66.8198 577.284 69.4474 580.107 72.8535C583.026 76.2595 585.216 80.2982 586.676 84.9694C588.135 89.6406 588.865 94.7498 588.865 100.297C588.865 101.27 588.816 102.292 588.719 103.362C588.719 104.433 588.622 105.747 588.427 107.304H541.131C541.715 111.196 543.515 114.019 546.532 115.77C549.646 117.522 553.198 118.398 557.188 118.398C560.692 118.398 564.293 117.814 567.991 116.646C571.689 115.381 574.9 113.678 577.625 111.537L586.967 127.01C583.172 129.541 579.717 131.584 576.603 133.141C573.489 134.601 570.278 135.623 566.969 136.207C563.757 136.888 560.011 137.229 555.729 137.229ZM567.261 96.3555C567.455 95.577 567.601 94.7984 567.699 94.0199C567.893 93.2414 567.991 92.5115 567.991 91.8303C567.991 89.9812 567.65 88.3755 566.969 87.0131C566.288 85.5533 565.314 84.3368 564.049 83.3637C562.882 82.3905 561.519 81.6606 559.962 81.174C558.405 80.5901 556.751 80.2982 554.999 80.2982C551.787 80.2982 549.16 80.8821 547.116 82.0499C545.17 83.2177 543.71 84.6288 542.737 86.2832C541.764 87.9376 541.131 89.5433 540.839 91.1004H574.56L567.261 96.3555Z" fill="#01422E"/>
<path d="M468.813 135.623L439.472 63.657H463.558L477.717 106.866L492.315 63.657H515.963L486.768 135.623H468.813Z" fill="#01422E"/>
<path d="M408.114 135.623V63.6569H430.157V135.623H408.114ZM407.968 53.7306V33.8779H430.448V53.7306H407.968Z" fill="#01422E"/>
<path d="M345.596 138.25C336.253 138.25 327.933 136.012 320.634 131.536C313.432 127.059 307.739 120.831 303.555 112.851C299.37 104.773 297.278 95.3824 297.278 84.6775C297.278 73.9726 299.37 64.6302 303.555 56.6502C307.739 48.6702 313.578 42.4419 321.072 37.9654C328.565 33.4888 337.226 31.2505 347.055 31.2505C358.247 31.2505 367.881 34.0727 375.959 39.7171C384.036 45.2641 389.826 52.9522 393.33 62.7812L371.725 70.5179C369.779 65.0681 366.665 60.8348 362.383 57.818C358.198 54.7039 353.089 53.1468 347.055 53.1468C341.606 53.1468 336.837 54.4119 332.75 56.9422C328.76 59.4724 325.646 63.0731 323.407 67.7443C321.266 72.4156 320.196 78.06 320.196 84.6775C320.196 91.2951 321.266 96.9881 323.407 101.757C325.646 106.428 328.76 110.029 332.75 112.559C336.837 115.089 341.606 116.354 347.055 116.354C349.975 116.354 352.943 115.965 355.96 115.186C358.977 114.311 361.75 112.899 364.281 110.953C366.908 108.909 369 106.039 370.557 102.341C372.212 98.6425 373.039 93.9713 373.039 88.3269V83.5097L378.148 99.567H348.515V79.1304H393.33V135.623H373.185L369.974 121.317L373.915 124.529C372.066 127.351 369.73 129.833 366.908 131.974C364.183 134.017 361.02 135.574 357.42 136.645C353.916 137.715 349.975 138.25 345.596 138.25Z" fill="#01422E"/>
<path d="M236.34 135.623V63.657H258.529V83.3637H255.901C255.998 79.2764 257.02 75.627 258.967 72.4155C261.01 69.2041 263.589 66.6738 266.703 64.8248C269.915 62.9758 273.223 62.0513 276.63 62.0513C279.16 62.0513 281.544 62.4405 283.782 63.2191C286.118 63.9003 288.551 65.0681 291.081 66.7225L280.571 86.5751C279.598 85.8939 278.235 85.31 276.484 84.8234C274.732 84.2395 272.98 83.9476 271.228 83.9476C269.574 83.9476 267.968 84.2395 266.411 84.8234C264.952 85.4073 263.638 86.3319 262.47 87.597C261.399 88.7648 260.524 90.2732 259.842 92.1222C259.356 93.4847 258.967 95.2364 258.675 97.3773C258.48 99.421 258.383 102.486 258.383 106.574V135.623H236.34Z" fill="#01422E"/>
<path d="M190.505 137.229C183.888 137.229 178.243 136.207 173.572 134.163C168.901 132.022 165.105 129.2 162.186 125.697C159.266 122.096 157.125 118.106 155.763 113.727C154.498 109.25 153.865 104.676 153.865 100.005C153.865 95.5283 154.498 91.0517 155.763 86.5751C157.125 82.0986 159.169 78.0112 161.894 74.3132C164.716 70.6152 168.365 67.647 172.842 65.4087C177.416 63.1704 182.914 62.0513 189.337 62.0513C194.982 62.0513 199.945 63.0244 204.227 64.9708C208.509 66.8198 212.061 69.4474 214.883 72.8535C217.802 76.2595 219.992 80.2982 221.452 84.9694C222.912 89.6406 223.642 94.7498 223.642 100.297C223.642 101.27 223.593 102.292 223.496 103.362C223.496 104.433 223.398 105.747 223.204 107.304H175.908C176.491 111.196 178.292 114.019 181.309 115.77C184.423 117.522 187.975 118.398 191.965 118.398C195.468 118.398 199.069 117.814 202.767 116.646C206.465 115.381 209.677 113.678 212.401 111.537L221.744 127.01C217.948 129.541 214.494 131.584 211.38 133.141C208.265 134.601 205.054 135.623 201.745 136.207C198.534 136.888 194.787 137.229 190.505 137.229ZM202.037 96.3555C202.232 95.577 202.378 94.7984 202.475 94.0199C202.67 93.2414 202.767 92.5115 202.767 91.8303C202.767 89.9812 202.426 88.3755 201.745 87.0131C201.064 85.5533 200.091 84.3368 198.826 83.3637C197.658 82.3905 196.295 81.6606 194.738 81.174C193.181 80.5901 191.527 80.2982 189.775 80.2982C186.564 80.2982 183.936 80.8821 181.893 82.0499C179.946 83.2177 178.486 84.6288 177.513 86.2832C176.54 87.9376 175.908 89.5433 175.616 91.1004H209.336L202.037 96.3555Z" fill="#01422E"/>
<path d="M103.589 135.623L74.248 63.657H98.334L112.494 106.866L127.091 63.657H150.739L121.544 135.623H103.589Z" fill="#01422E"/>
<path d="M0.287598 135.623V33.8779H68.6041V54.3145H23.2057V72.9993H66.4145V93.4359H23.2057V115.186H68.6041V135.623H0.287598Z" fill="#01422E"/>
<path d="M594 73.1252V6.91016H618.7C625.477 6.91016 630.797 8.39849 634.66 11.3752C638.523 14.3518 640.455 18.4685 640.455 23.7252C640.455 26.6385 639.885 29.2352 638.745 31.5152C637.605 33.7952 636.022 35.6635 633.995 37.1202C637.478 38.6402 640.012 40.7618 641.595 43.4852C643.242 46.1452 644.065 49.4068 644.065 53.2702C644.065 59.4135 642.102 64.2585 638.175 67.8052C634.312 71.3518 628.992 73.1252 622.215 73.1252H594ZM608.915 59.4452H620.98C626.427 59.4452 629.15 57.1652 629.15 52.6052C629.15 50.3885 628.422 48.6785 626.965 47.4752C625.572 46.2718 623.577 45.6702 620.98 45.6702H608.915V59.4452ZM608.915 32.3702H618.7C620.853 32.3702 622.532 31.8318 623.735 30.7552C624.938 29.6152 625.54 28.0635 625.54 26.1002C625.54 24.3268 624.938 22.9652 623.735 22.0152C622.595 21.0652 620.917 20.5902 618.7 20.5902H608.915V32.3702Z" fill="#01422E"/>
<rect x="600.27" width="6.875" height="6.875" fill="#01422E"/>
<rect x="600.27" y="73.125" width="6.875" height="6.875" fill="#01422E"/>
<rect x="612.145" width="6.875" height="6.875" fill="#01422E"/>
<rect x="612.145" y="73.125" width="6.875" height="6.875" fill="#01422E"/>
</svg>
